<mxfile host="app.diagrams.net" modified="2023-08-28T06:15:26.836Z" agent="Mozilla/5.0 (Macintosh; Intel Mac OS X 10_15_7) AppleWebKit/537.36 (KHTML, like Gecko) Chrome/116.0.0.0 Safari/537.36 Edg/116.0.1938.54" version="21.6.9" etag="oht8fimlnP8HArmW5sFQ" type="github">
  <diagram name="第 1 页" id="5-51IKfZ7tIYX40K0J7_">
    <mxGraphModel>
      <root>
        <mxCell id="0" />
        <mxCell id="1" parent="0" />
      </root>
    </mxGraphModel>
  </diagram>
</mxfile>
